<svg width="197" height="197" viewBox="0 0 197 197" fill="none" xmlns="http://www.w3.org/2000/svg">
<path d="M166.976 106.77L153.114 106.77L153.114 145.09L120.961 106.771L107.101 106.771L107.101 166.643L120.961 166.643L120.961 128.334L153.111 166.649L153.114 166.643L166.976 166.643L166.976 106.77Z" fill="#B7986A"/>
<path d="M68.2295 166.643L53.4396 166.643L30.896 106.77L45.6877 106.77L60.8346 146.878L75.9814 106.77L90.7713 106.77L68.2295 166.643Z" fill="#B7986A"/>
<path d="M144.434 30.5647L129.643 30.5647L107.101 90.4381L121.893 90.4381L137.038 50.3297L152.184 90.4381L166.976 90.4381L144.434 30.5647Z" fill="#B7986A"/>
<path d="M75.482 71.4053C84.2974 68.9965 90.779 60.9316 90.779 51.3529C90.779 40.0701 81.7897 30.8869 70.5838 30.5738L70.5838 30.5647L38.2987 30.5647L24.8816 30.5647L36.0179 44.4211L38.3005 44.4211L38.3005 44.4247L70.0951 44.4247C73.8749 44.4796 76.9226 47.5603 76.9226 51.3529C76.9226 55.1804 73.82 58.2829 69.9926 58.2829L64.9388 58.2829L47.1579 58.2829L73.0018 90.44L90.7808 90.44L75.482 71.4053Z" fill="#B7986A"/>
<path d="M40.4216 90.4398C45.6825 90.4398 49.9472 86.175 49.9472 80.9142C49.9472 75.6533 45.6825 71.3885 40.4216 71.3885C35.1608 71.3885 30.896 75.6533 30.896 80.9142C30.896 86.175 35.1608 90.4398 40.4216 90.4398Z" fill="#B7986A"/>
<path d="M0.958252 0.626953L0.958252 0.812517L0.958251 196.582L196.914 196.582L196.914 0.812518L196.914 0.626954L0.958252 0.626953ZM180.584 180.253L17.2879 180.253L17.2879 16.9566L180.584 16.9566L180.584 180.253Z" fill="#B7986A"/>
</svg>
